<mxfile host="app.diagrams.net" agent="Mozilla/5.0 (Windows NT 10.0; Win64; x64; rv:139.0) Gecko/20100101 Firefox/139.0" version="27.1.5">
  <diagram name="Page-1" id="5oc6bwWuYrsWBhuM-muV">
    <mxGraphModel dx="1025" dy="428" grid="1" gridSize="10" guides="1" tooltips="1" connect="1" arrows="1" fold="1" page="1" pageScale="1" pageWidth="850" pageHeight="1100" math="0" shadow="0">
      <root>
        <mxCell id="0" />
        <mxCell id="1" parent="0" />
        <mxCell id="dAtNgGmfbrSs-MS2z_zb-3" style="edgeStyle=orthogonalEdgeStyle;rounded=0;orthogonalLoop=1;jettySize=auto;html=1;exitX=0.5;exitY=1;exitDx=0;exitDy=0;entryX=0.5;entryY=0;entryDx=0;entryDy=0;" edge="1" parent="1" source="dAtNgGmfbrSs-MS2z_zb-1" target="dAtNgGmfbrSs-MS2z_zb-2">
          <mxGeometry relative="1" as="geometry" />
        </mxCell>
        <mxCell id="dAtNgGmfbrSs-MS2z_zb-1" value="&lt;div&gt;&lt;b&gt;GROUNDED&lt;/b&gt;&lt;/div&gt;&lt;div&gt;T = inf&lt;/div&gt;&lt;div&gt;&lt;br&gt;&lt;/div&gt;&lt;div&gt;solenoids = OFF&lt;/div&gt;" style="rounded=1;whiteSpace=wrap;html=1;" vertex="1" parent="1">
          <mxGeometry x="210" y="170" width="150" height="100" as="geometry" />
        </mxCell>
        <mxCell id="dAtNgGmfbrSs-MS2z_zb-7" style="edgeStyle=orthogonalEdgeStyle;rounded=0;orthogonalLoop=1;jettySize=auto;html=1;exitX=1;exitY=0.5;exitDx=0;exitDy=0;" edge="1" parent="1" source="dAtNgGmfbrSs-MS2z_zb-2" target="dAtNgGmfbrSs-MS2z_zb-6">
          <mxGeometry relative="1" as="geometry" />
        </mxCell>
        <mxCell id="dAtNgGmfbrSs-MS2z_zb-2" value="&lt;div&gt;&lt;b&gt;LAUNCHED&lt;/b&gt;&lt;/div&gt;&lt;div&gt;T = 0 sec&lt;/div&gt;&lt;div&gt;&lt;br&gt;&lt;/div&gt;&lt;div&gt;solenoids = ON&lt;/div&gt;&lt;div&gt;start_timer()&lt;/div&gt;" style="rounded=1;whiteSpace=wrap;html=1;" vertex="1" parent="1">
          <mxGeometry x="210" y="340" width="150" height="100" as="geometry" />
        </mxCell>
        <mxCell id="dAtNgGmfbrSs-MS2z_zb-4" value="[continuity == 0]" style="text;html=1;align=center;verticalAlign=middle;resizable=0;points=[];autosize=1;strokeColor=none;fillColor=none;" vertex="1" parent="1">
          <mxGeometry x="280" y="280" width="110" height="30" as="geometry" />
        </mxCell>
        <mxCell id="dAtNgGmfbrSs-MS2z_zb-5" value="solenoids = ON" style="text;html=1;align=center;verticalAlign=middle;resizable=0;points=[];autosize=1;strokeColor=none;fillColor=none;" vertex="1" parent="1">
          <mxGeometry x="280" y="300" width="110" height="30" as="geometry" />
        </mxCell>
        <mxCell id="dAtNgGmfbrSs-MS2z_zb-10" style="edgeStyle=orthogonalEdgeStyle;rounded=0;orthogonalLoop=1;jettySize=auto;html=1;exitX=0.5;exitY=0;exitDx=0;exitDy=0;entryX=0.5;entryY=1;entryDx=0;entryDy=0;" edge="1" parent="1" source="dAtNgGmfbrSs-MS2z_zb-6" target="dAtNgGmfbrSs-MS2z_zb-9">
          <mxGeometry relative="1" as="geometry" />
        </mxCell>
        <mxCell id="dAtNgGmfbrSs-MS2z_zb-6" value="&lt;div&gt;&lt;b&gt;FLIGHT&lt;/b&gt;&lt;/div&gt;&lt;div&gt;T = 2 min&lt;/div&gt;&lt;div&gt;&lt;br&gt;&lt;/div&gt;&lt;div&gt;solenoids = ON&lt;/div&gt;" style="rounded=1;whiteSpace=wrap;html=1;" vertex="1" parent="1">
          <mxGeometry x="450" y="340" width="150" height="100" as="geometry" />
        </mxCell>
        <mxCell id="dAtNgGmfbrSs-MS2z_zb-8" value="[timer started]" style="text;html=1;align=center;verticalAlign=middle;resizable=0;points=[];autosize=1;strokeColor=none;fillColor=none;" vertex="1" parent="1">
          <mxGeometry x="355" y="360" width="100" height="30" as="geometry" />
        </mxCell>
        <mxCell id="dAtNgGmfbrSs-MS2z_zb-19" style="edgeStyle=orthogonalEdgeStyle;rounded=0;orthogonalLoop=1;jettySize=auto;html=1;exitX=0.5;exitY=0;exitDx=0;exitDy=0;entryX=0.5;entryY=1;entryDx=0;entryDy=0;" edge="1" parent="1" source="dAtNgGmfbrSs-MS2z_zb-9" target="dAtNgGmfbrSs-MS2z_zb-15">
          <mxGeometry relative="1" as="geometry" />
        </mxCell>
        <mxCell id="dAtNgGmfbrSs-MS2z_zb-9" value="&lt;div&gt;&lt;b&gt;LANDED&lt;/b&gt;&lt;/div&gt;&lt;div&gt;T = inf&lt;/div&gt;&lt;div&gt;&lt;br&gt;&lt;/div&gt;&lt;div&gt;solenoids = OFF&lt;/div&gt;" style="rounded=1;whiteSpace=wrap;html=1;" vertex="1" parent="1">
          <mxGeometry x="450" y="170" width="150" height="100" as="geometry" />
        </mxCell>
        <mxCell id="dAtNgGmfbrSs-MS2z_zb-12" value="solenoids = OFF" style="text;html=1;align=center;verticalAlign=middle;resizable=0;points=[];autosize=1;strokeColor=none;fillColor=none;" vertex="1" parent="1">
          <mxGeometry x="530" y="300" width="110" height="30" as="geometry" />
        </mxCell>
        <mxCell id="dAtNgGmfbrSs-MS2z_zb-14" style="edgeStyle=orthogonalEdgeStyle;rounded=0;orthogonalLoop=1;jettySize=auto;html=1;exitX=0.5;exitY=1;exitDx=0;exitDy=0;entryX=0.5;entryY=0;entryDx=0;entryDy=0;" edge="1" parent="1" source="dAtNgGmfbrSs-MS2z_zb-13" target="dAtNgGmfbrSs-MS2z_zb-1">
          <mxGeometry relative="1" as="geometry" />
        </mxCell>
        <mxCell id="dAtNgGmfbrSs-MS2z_zb-13" value="" style="ellipse;whiteSpace=wrap;html=1;aspect=fixed;fillColor=#000000;" vertex="1" parent="1">
          <mxGeometry x="265" y="100" width="40" height="40" as="geometry" />
        </mxCell>
        <mxCell id="dAtNgGmfbrSs-MS2z_zb-15" value="" style="ellipse;whiteSpace=wrap;html=1;aspect=fixed;fillColor=#000000;" vertex="1" parent="1">
          <mxGeometry x="505" y="100" width="40" height="40" as="geometry" />
        </mxCell>
        <mxCell id="dAtNgGmfbrSs-MS2z_zb-17" value="START" style="text;html=1;align=center;verticalAlign=middle;resizable=0;points=[];autosize=1;strokeColor=none;fillColor=none;" vertex="1" parent="1">
          <mxGeometry x="255" y="68" width="60" height="30" as="geometry" />
        </mxCell>
        <mxCell id="dAtNgGmfbrSs-MS2z_zb-18" value="&lt;div&gt;END&lt;/div&gt;" style="text;html=1;align=center;verticalAlign=middle;resizable=0;points=[];autosize=1;strokeColor=none;fillColor=none;" vertex="1" parent="1">
          <mxGeometry x="500" y="68" width="50" height="30" as="geometry" />
        </mxCell>
      </root>
    </mxGraphModel>
  </diagram>
</mxfile>
